<svg width="144" height="48" viewBox="0 0 144 48" fill="none" xmlns="http://www.w3.org/2000/svg">
	<g clip-path="url(#clip0_315_36203)">
	<path d="M132.162 1.86709e-05H11.4416C11.0016 1.86709e-05 10.5668 1.8671e-05 10.1279 0.00241867C9.76056 0.00481867 9.39611 0.0117907 9.0252 0.0176587C8.21942 0.0271408 7.41553 0.0980302 6.62052 0.229711C5.82663 0.364258 5.05761 0.617918 4.33946 0.982111C3.6222 1.34938 2.96681 1.82662 2.39708 2.3965C1.82436 2.96478 1.34696 3.62164 0.98322 4.34181C0.61848 5.06055 0.365569 5.83074 0.23322 6.62579C0.0996131 7.41984 0.0277181 8.22304 0.01818 9.02819C0.007044 9.39611 0.005868 9.76526 0 10.1332V37.8703C0.005868 38.2429 0.007044 38.6039 0.01818 38.9766C0.027721 39.7817 0.0996161 40.5849 0.23322 41.3789C0.365203 42.1744 0.61813 42.945 0.98322 43.6641C1.34679 44.3819 1.82427 45.0361 2.39708 45.6012C2.96465 46.1736 3.62046 46.6512 4.33946 47.0157C5.0576 47.3808 5.82654 47.636 6.62052 47.7726C7.41566 47.9032 8.21947 47.9742 9.0252 47.9848C9.39611 47.9929 9.76056 47.9976 10.1279 47.9976C10.5668 48 11.0016 48 11.4416 48H132.162C132.593 48 133.031 48 133.463 47.9976C133.828 47.9976 134.203 47.9929 134.569 47.9848C135.373 47.9747 136.175 47.9038 136.969 47.7726C137.765 47.635 138.537 47.3799 139.259 47.0157C139.977 46.651 140.632 46.1734 141.199 45.6012C141.771 45.0339 142.249 44.3802 142.617 43.6641C142.98 42.9445 143.23 42.1739 143.36 41.3789C143.494 40.5848 143.568 39.7818 143.583 38.9766C143.588 38.6039 143.588 38.2429 143.588 37.8703C143.597 37.4344 143.597 37.0008 143.597 36.5578V11.4434C143.597 11.0039 143.597 10.568 143.588 10.1332C143.588 9.76526 143.588 9.39611 143.583 9.02815C143.568 8.22293 143.494 7.4199 143.36 6.62575C143.23 5.83116 142.979 5.06102 142.617 4.34176C141.876 2.89825 140.702 1.72325 139.259 0.982003C138.537 0.618699 137.765 0.365107 136.969 0.229603C136.175 0.097342 135.373 0.026428 134.569 0.0174907C134.203 0.0116347 133.828 0.00460267 133.463 0.00226267C133.031 -0.000137329 132.593 -0.000137329 132.162 -0.000137329V1.86709e-05Z" fill="black"/>
	<path d="M10.1338 46.95C9.76818 46.95 9.41139 46.9453 9.04865 46.9371C8.29718 46.9274 7.54748 46.8619 6.80568 46.7414C6.11398 46.6223 5.44392 46.4007 4.81759 46.084C4.197 45.7698 3.63097 45.3579 3.14119 44.864C2.64432 44.376 2.23065 43.8099 1.91658 43.1882C1.59904 42.5625 1.37929 41.8919 1.26498 41.1996C1.14152 40.4557 1.07473 39.7036 1.06518 38.9496C1.05757 38.6965 1.04761 37.8539 1.04761 37.8539V10.1332C1.04761 10.1332 1.05822 9.3035 1.06524 9.05975C1.07439 8.30697 1.14079 7.55597 1.26387 6.81326C1.3784 6.11909 1.59832 5.44649 1.91602 4.81874C2.22894 4.19752 2.64031 3.63102 3.13419 3.1412C3.62752 2.64673 4.19535 2.23271 4.817 1.91424C5.44189 1.5985 6.11069 1.37847 6.80098 1.26151C7.54522 1.13979 8.29753 1.07398 9.0516 1.06464L10.1344 1.04999H133.457L134.552 1.06523C135.3 1.07411 136.045 1.13933 136.782 1.26034C137.48 1.37876 138.156 1.60033 138.788 1.91776C140.033 2.55957 141.046 3.57498 141.686 4.82167C141.998 5.44508 142.215 6.1122 142.328 6.80038C142.452 7.54918 142.522 8.30607 142.536 9.06503C142.54 9.40487 142.54 9.76991 142.54 10.1332C142.549 10.5832 142.549 11.0115 142.549 11.4433V36.5578C142.549 36.9937 142.549 37.4191 142.54 37.848C142.54 38.2382 142.54 38.5957 142.535 38.9636C142.521 39.709 142.453 40.4524 142.33 41.1878C142.218 41.8851 142 42.561 141.682 43.1918C141.366 43.8067 140.954 44.3679 140.463 44.8547C139.973 45.3512 139.406 45.7655 138.784 46.0817C138.154 46.4009 137.479 46.6233 136.782 46.7414C136.041 46.8626 135.291 46.928 134.539 46.9371C134.188 46.9453 133.82 46.95 133.463 46.95L132.162 46.9524L10.1338 46.95Z" fill="black"/>
	<path d="M29.7226 24.3605C29.7355 23.3589 30.0015 22.3768 30.496 21.5057C30.9904 20.6345 31.6972 19.9026 32.5505 19.378C32.0084 18.6038 31.2933 17.9667 30.4619 17.5172C29.6305 17.0678 28.7057 16.8183 27.7611 16.7888C25.746 16.5773 23.7925 17.9946 22.7656 17.9946C21.7189 17.9946 20.1379 16.8098 18.4354 16.8448C17.3342 16.8804 16.261 17.2006 15.3203 17.7743C14.3797 18.348 13.6037 19.1555 13.0679 20.1183C10.7471 24.1364 12.4782 30.0416 14.7013 33.2896C15.8136 34.88 17.1135 36.6565 18.8145 36.5935C20.479 36.5245 21.1006 35.5321 23.1098 35.5321C25.1003 35.5321 25.6835 36.5935 27.419 36.5535C29.205 36.5245 30.3303 34.956 31.4036 33.3505C32.2028 32.2173 32.8177 30.9648 33.2257 29.6395C32.188 29.2006 31.3025 28.466 30.6796 27.5272C30.0566 26.5885 29.7238 25.4871 29.7226 24.3605Z" fill="white"/>
	<path d="M26.4447 14.6535C27.4185 13.4844 27.8983 11.9818 27.7821 10.4647C26.2943 10.621 24.92 11.3321 23.933 12.4563C23.4505 13.0055 23.0809 13.6444 22.8454 14.3365C22.6099 15.0286 22.5131 15.7604 22.5606 16.4899C23.3047 16.4976 24.0409 16.3363 24.7137 16.0182C25.3865 15.7001 25.9784 15.2335 26.4447 14.6535Z" fill="white"/>
	<path d="M50.7626 32.5676H45.0825L43.7185 36.5953H41.3126L46.6927 21.6937H49.1923L54.5724 36.5953H52.1255L50.7626 32.5676ZM45.6708 30.709H50.1732L47.9537 24.1723H47.8916L45.6708 30.709Z" fill="white"/>
	<path d="M66.1915 31.1634C66.1915 34.5396 64.3845 36.7087 61.6576 36.7087C60.9668 36.7449 60.2798 36.5857 59.6752 36.2496C59.0707 35.9134 58.573 35.4138 58.2392 34.8079H58.1876V40.1892H55.9575V25.7306H58.1162V27.5376H58.1572C58.5063 26.9347 59.0124 26.4376 59.6215 26.0994C60.2307 25.7612 60.9202 25.5945 61.6165 25.6169C64.3739 25.6169 66.1915 27.7966 66.1915 31.1634ZM63.8994 31.1634C63.8994 28.9638 62.7626 27.5177 61.0283 27.5177C59.3243 27.5177 58.1783 28.9943 58.1783 31.1634C58.1783 33.3525 59.3243 34.8185 61.0283 34.8185C62.7626 34.8185 63.8994 33.3829 63.8994 31.1634Z" fill="white"/>
	<path d="M78.1493 31.1634C78.1493 34.5396 76.3423 36.7087 73.6153 36.7087C72.9245 36.7448 72.2375 36.5857 71.633 36.2496C71.0284 35.9134 70.5308 35.4138 70.197 34.8079H70.1454V40.1892H67.9153V25.7306H70.0739V27.5376H70.1149C70.464 26.9347 70.9701 26.4376 71.5793 26.0994C72.1884 25.7612 72.8779 25.5945 73.5743 25.6169C76.3317 25.6169 78.1493 27.7966 78.1493 31.1634ZM75.8571 31.1634C75.8571 28.9638 74.7204 27.5177 72.986 27.5177C71.2821 27.5177 70.136 28.9943 70.136 31.1634C70.136 33.3525 71.2821 34.8185 72.986 34.8185C74.7204 34.8185 75.8571 33.3829 75.8571 31.1634H75.8571Z" fill="white"/>
	<path d="M86.0525 32.4434C86.2177 33.9211 87.6533 34.8914 89.615 34.8914C91.4947 34.8914 92.847 33.9211 92.847 32.5887C92.847 31.432 92.0314 30.7395 90.1002 30.2648L88.1689 29.7996C85.4326 29.1387 84.1623 27.859 84.1623 25.7824C84.1623 23.2113 86.4029 21.4453 89.5845 21.4453C92.7333 21.4453 94.892 23.2113 94.9646 25.7824H92.7134C92.5787 24.2953 91.3494 23.3976 89.5529 23.3976C87.7564 23.3976 86.5271 24.3059 86.5271 25.6277C86.5271 26.6812 87.3122 27.3012 89.2329 27.7757L90.8747 28.1789C93.9322 28.9019 95.2025 30.1301 95.2025 32.3097C95.2025 35.0976 92.9818 36.8437 89.4497 36.8437C86.145 36.8437 83.9138 35.1386 83.7697 32.4433L86.0525 32.4434Z" fill="white"/>
	<path d="M100.015 23.1607V25.7318H102.081V27.4978H100.015V33.4873C100.015 34.4177 100.429 34.8513 101.337 34.8513C101.583 34.8471 101.827 34.8298 102.071 34.7997V36.5552C101.663 36.6315 101.247 36.6661 100.832 36.6583C98.6326 36.6583 97.7747 35.8322 97.7747 33.7251V27.4978H96.1951V25.7318H97.7747V23.1607H100.015Z" fill="white"/>
	<path d="M103.278 31.1646C103.278 27.7463 105.291 25.5982 108.431 25.5982C111.581 25.5982 113.585 27.7462 113.585 31.1646C113.585 34.5923 111.591 36.731 108.431 36.731C105.271 36.731 103.278 34.5923 103.278 31.1646ZM111.312 31.1646C111.312 28.8197 110.238 27.4357 108.431 27.4357C106.624 27.4357 105.55 28.8302 105.55 31.1646C105.55 33.5189 106.624 34.8923 108.431 34.8923C110.238 34.8923 111.312 33.5189 111.312 31.1646H111.312Z" fill="white"/>
	<path d="M115.423 25.7305H117.55V27.5797H117.602C117.746 27.0022 118.084 26.4918 118.56 26.1343C119.036 25.7768 119.62 25.5941 120.215 25.6168C120.472 25.6159 120.728 25.6438 120.979 25.7V27.786C120.655 27.6868 120.316 27.6413 119.977 27.6512C119.653 27.6381 119.33 27.6952 119.03 27.8186C118.731 27.9421 118.461 28.129 118.24 28.3665C118.019 28.6039 117.853 28.8864 117.751 29.1944C117.65 29.5024 117.617 29.8286 117.653 30.1508V36.595H115.423L115.423 25.7305Z" fill="white"/>
	<path d="M131.261 33.4052C130.961 35.3775 129.04 36.731 126.583 36.731C123.422 36.731 121.461 34.6134 121.461 31.2162C121.461 27.8084 123.433 25.5982 126.489 25.5982C129.495 25.5982 131.385 27.663 131.385 30.9572V31.7213H123.712V31.856C123.676 32.2559 123.727 32.6587 123.859 33.0377C123.991 33.4167 124.202 33.7632 124.479 34.0543C124.755 34.3453 125.09 34.5742 125.462 34.7258C125.834 34.8774 126.233 34.9481 126.635 34.9334C127.162 34.9827 127.69 34.8607 128.142 34.5854C128.594 34.31 128.946 33.8961 129.144 33.4052L131.261 33.4052ZM123.722 30.1627H129.154C129.174 29.8031 129.12 29.4434 128.994 29.1059C128.868 28.7685 128.674 28.4606 128.424 28.2017C128.174 27.9428 127.873 27.7384 127.54 27.6013C127.207 27.4643 126.849 27.3975 126.489 27.4052C126.126 27.4031 125.766 27.4728 125.43 27.6105C125.094 27.7482 124.789 27.9511 124.531 28.2075C124.274 28.4638 124.07 28.7686 123.931 29.1042C123.792 29.4398 123.721 29.7995 123.722 30.1627V30.1627Z" fill="white"/>
	<path d="M45.3915 10.4776C45.859 10.444 46.3282 10.5146 46.7651 10.6844C47.2021 10.8541 47.5959 11.1187 47.9182 11.459C48.2405 11.7994 48.4832 12.207 48.6289 12.6525C48.7746 13.098 48.8196 13.5704 48.7606 14.0354C48.7606 16.3229 47.5243 17.6378 45.3915 17.6378H42.8052V10.4776H45.3915ZM43.9173 16.6252H45.2673C45.6014 16.6451 45.9357 16.5904 46.2459 16.4648C46.5562 16.3393 46.8345 16.1461 47.0607 15.8995C47.2869 15.6528 47.4553 15.3588 47.5535 15.0388C47.6517 14.7189 47.6774 14.3811 47.6286 14.05C47.6739 13.7202 47.6456 13.3844 47.5459 13.0668C47.4461 12.7492 47.2774 12.4576 47.0517 12.2129C46.826 11.9682 46.549 11.7764 46.2405 11.6514C45.932 11.5263 45.5997 11.471 45.2673 11.4894H43.9173V16.6252Z" fill="white"/>
	<path d="M50.0169 14.9346C49.983 14.5795 50.0236 14.2212 50.1362 13.8827C50.2488 13.5442 50.4309 13.233 50.6708 12.969C50.9108 12.705 51.2032 12.4941 51.5295 12.3498C51.8557 12.2055 52.2085 12.1309 52.5652 12.1309C52.9219 12.1309 53.2747 12.2055 53.6009 12.3498C53.9271 12.4941 54.2196 12.705 54.4595 12.969C54.6994 13.233 54.8816 13.5442 54.9942 13.8827C55.1068 14.2212 55.1474 14.5795 55.1134 14.9346C55.148 15.29 55.1079 15.6488 54.9956 15.9878C54.8833 16.3269 54.7013 16.6386 54.4613 16.9031C54.2213 17.1676 53.9286 17.379 53.6021 17.5236C53.2755 17.6683 52.9223 17.743 52.5652 17.743C52.208 17.743 51.8548 17.6683 51.5283 17.5236C51.2017 17.379 50.9091 17.1676 50.6691 16.9031C50.4291 16.6386 50.2471 16.3269 50.1348 15.9878C50.0225 15.6488 49.9823 15.29 50.0169 14.9346ZM54.0165 14.9346C54.0165 13.7633 53.4904 13.0783 52.5669 13.0783C51.64 13.0783 51.1185 13.7633 51.1185 14.9346C51.1185 16.1152 51.64 16.7949 52.5669 16.7949C53.4904 16.7949 54.0166 16.1105 54.0166 14.9346H54.0165Z" fill="white"/>
	<path d="M61.888 17.6378H60.7817L59.6649 13.6581H59.5806L58.4685 17.6378H57.3728L55.8833 12.2343H56.9649L57.9329 16.3575H58.0126L59.1235 12.2343H60.1466L61.2575 16.3575H61.3419L62.3052 12.2343H63.3716L61.888 17.6378Z" fill="white"/>
	<path d="M64.6243 12.2338H65.6508V13.0922H65.7305C65.8657 12.7839 66.0937 12.5255 66.3828 12.3529C66.6718 12.1803 67.0075 12.1023 67.343 12.1295C67.6059 12.1098 67.8699 12.1494 68.1155 12.2455C68.361 12.3416 68.5817 12.4918 68.7613 12.6848C68.941 12.8778 69.0748 13.1087 69.1531 13.3605C69.2313 13.6123 69.2519 13.8785 69.2133 14.1393V17.6373H68.1469V14.4071C68.1469 13.5387 67.7696 13.1069 66.9809 13.1069C66.8024 13.0986 66.6242 13.1289 66.4585 13.1959C66.2929 13.2629 66.1436 13.365 66.0211 13.495C65.8985 13.6251 65.8056 13.7801 65.7485 13.9495C65.6915 14.1188 65.6718 14.2985 65.6907 14.4762V17.6373H64.6243L64.6243 12.2338Z" fill="white"/>
	<path d="M70.9126 10.1249H71.979V17.6378H70.9126V10.1249Z" fill="white"/>
	<path d="M73.4614 14.9328C73.4274 14.5776 73.4681 14.2193 73.5807 13.8808C73.6933 13.5423 73.8755 13.2311 74.1154 12.9671C74.3554 12.7032 74.6479 12.4922 74.9741 12.3479C75.3003 12.2036 75.6532 12.129 76.0099 12.129C76.3666 12.129 76.7195 12.2036 77.0457 12.3479C77.3719 12.4922 77.6644 12.7032 77.9044 12.9671C78.1443 13.2311 78.3265 13.5423 78.4391 13.8808C78.5517 14.2193 78.5924 14.5776 78.5584 14.9328C78.593 15.2882 78.5528 15.647 78.4405 15.9861C78.3281 16.3251 78.1461 16.6369 77.9061 16.9014C77.6661 17.1658 77.3734 17.3772 77.0468 17.5218C76.7203 17.6665 76.3671 17.7412 76.0099 17.7412C75.6527 17.7412 75.2995 17.6665 74.973 17.5218C74.6464 17.3772 74.3537 17.1658 74.1137 16.9014C73.8737 16.6369 73.6917 16.3251 73.5793 15.9861C73.467 15.647 73.4268 15.2882 73.4614 14.9328ZM77.461 14.9328C77.461 13.7615 76.9348 13.0765 76.0114 13.0765C75.0844 13.0765 74.563 13.7615 74.563 14.9328C74.563 16.1134 75.0844 16.7931 76.0114 16.7931C76.9348 16.7931 77.461 16.1087 77.461 14.9328H77.461Z" fill="white"/>
	<path d="M79.6812 16.1106C79.6812 15.1379 80.4054 14.5772 81.6909 14.4975L83.1546 14.4131V13.9467C83.1546 13.376 82.7772 13.0538 82.0483 13.0538C81.453 13.0538 81.0405 13.2723 80.9222 13.6543H79.8897C79.9987 12.7262 80.8718 12.1309 82.0976 12.1309C83.4523 12.1309 84.2163 12.8053 84.2163 13.9467V17.6387H83.1898V16.8793H83.1054C82.9341 17.1517 82.6936 17.3738 82.4085 17.5228C82.1233 17.6719 81.8037 17.7426 81.4823 17.7277C81.2555 17.7513 81.0262 17.7271 80.8093 17.6567C80.5924 17.5863 80.3926 17.4711 80.2229 17.3188C80.0532 17.1664 79.9174 16.9802 79.824 16.7721C79.7307 16.564 79.682 16.3386 79.6812 16.1106ZM83.1546 15.6489V15.1971L81.8351 15.2815C81.0909 15.3313 80.7534 15.5844 80.7534 16.0608C80.7534 16.5471 81.1753 16.8301 81.7554 16.8301C81.9254 16.8473 82.0971 16.8301 82.2603 16.7796C82.4235 16.7291 82.5749 16.6463 82.7054 16.5361C82.836 16.4259 82.943 16.2905 83.0202 16.1381C83.0973 15.9857 83.1431 15.8193 83.1546 15.6489Z" fill="white"/>
	<path d="M85.6179 14.9337C85.6179 13.2263 86.4957 12.1446 87.8609 12.1446C88.1986 12.1291 88.5338 12.2099 88.8272 12.3778C89.1206 12.5457 89.3602 12.7936 89.5179 13.0926H89.5976V10.1249H90.664V17.6378H89.6422V16.784H89.5578C89.3879 17.081 89.1399 17.3259 88.8408 17.4921C88.5417 17.6582 88.2028 17.7394 87.8609 17.7268C86.4863 17.7269 85.6179 16.6452 85.6179 14.9337ZM86.7195 14.9337C86.7195 16.0798 87.2598 16.7694 88.1633 16.7694C89.0621 16.7694 89.6176 16.0698 89.6176 14.9384C89.6176 13.8122 89.0563 13.1026 88.1633 13.1026C87.2656 13.1026 86.7195 13.797 86.7195 14.9337H86.7195Z" fill="white"/>
	<path d="M95.0761 14.9346C95.0422 14.5795 95.0828 14.2212 95.1954 13.8827C95.308 13.5442 95.4901 13.233 95.73 12.969C95.97 12.705 96.2624 12.4941 96.5886 12.3498C96.9149 12.2055 97.2677 12.1309 97.6244 12.1309C97.9811 12.1309 98.3339 12.2055 98.6601 12.3498C98.9863 12.4941 99.2788 12.705 99.5187 12.969C99.7586 13.233 99.9407 13.5442 100.053 13.8827C100.166 14.2212 100.207 14.5795 100.173 14.9346C100.207 15.29 100.167 15.6488 100.055 15.9878C99.9425 16.3269 99.7605 16.6386 99.5205 16.9031C99.2805 17.1676 98.9878 17.379 98.6613 17.5236C98.3347 17.6683 97.9815 17.743 97.6244 17.743C97.2672 17.743 96.914 17.6683 96.5875 17.5236C96.2609 17.379 95.9683 17.1676 95.7283 16.9031C95.4883 16.6386 95.3063 16.3269 95.194 15.9878C95.0817 15.6488 95.0415 15.29 95.0761 14.9346ZM99.0757 14.9346C99.0757 13.7633 98.5496 13.0783 97.6261 13.0783C96.6992 13.0783 96.1777 13.7633 96.1777 14.9346C96.1777 16.1152 96.6992 16.7949 97.6261 16.7949C98.5496 16.7949 99.0757 16.1105 99.0757 14.9346Z" fill="white"/>
	<path d="M101.603 12.2338H102.63V13.0922H102.71C102.845 12.7839 103.073 12.5255 103.362 12.3529C103.651 12.1803 103.987 12.1023 104.322 12.1295C104.585 12.1098 104.849 12.1494 105.095 12.2455C105.34 12.3416 105.561 12.4918 105.74 12.6848C105.92 12.8778 106.054 13.1087 106.132 13.3605C106.21 13.6123 106.231 13.8785 106.192 14.1393V17.6373H105.126V14.4071C105.126 13.5387 104.749 13.1069 103.96 13.1069C103.782 13.0986 103.603 13.1289 103.438 13.1959C103.272 13.2629 103.123 13.365 103 13.495C102.878 13.6251 102.785 13.7801 102.728 13.9495C102.671 14.1188 102.651 14.2985 102.67 14.4762V17.6373H101.603V12.2338Z" fill="white"/>
	<path d="M112.218 10.8889V12.2589H113.389V13.1571H112.218V15.9356C112.218 16.5016 112.451 16.7495 112.982 16.7495C113.118 16.7491 113.254 16.7408 113.389 16.7249V17.6132C113.197 17.6474 113.003 17.6656 112.809 17.6676C111.623 17.6676 111.151 17.2505 111.151 16.2087V13.1571H110.293V12.2588H111.151V10.8889H112.218Z" fill="white"/>
	<path d="M114.846 10.1249H115.903V13.1026H115.987C116.129 12.7914 116.363 12.5315 116.658 12.3583C116.953 12.1851 117.294 12.107 117.635 12.1346C117.896 12.1204 118.158 12.1641 118.4 12.2625C118.643 12.361 118.861 12.5118 119.039 12.7042C119.217 12.8966 119.35 13.1259 119.429 13.3756C119.508 13.6254 119.53 13.8895 119.496 14.1491V17.6378H118.428V14.4122C118.428 13.5491 118.026 13.112 117.273 13.112C117.089 13.0969 116.905 13.1221 116.732 13.1858C116.56 13.2495 116.403 13.3501 116.274 13.4805C116.144 13.611 116.045 13.7683 115.982 13.9412C115.92 14.1142 115.896 14.2987 115.912 14.4819V17.6378H114.846L114.846 10.1249Z" fill="white"/>
	<path d="M125.714 16.1779C125.569 16.6718 125.255 17.0989 124.827 17.3847C124.399 17.6705 123.884 17.7967 123.372 17.7412C123.016 17.7506 122.662 17.6824 122.335 17.5414C122.008 17.4003 121.716 17.1898 121.478 16.9245C121.241 16.6591 121.064 16.3452 120.96 16.0046C120.856 15.6641 120.827 15.3049 120.876 14.9521C120.829 14.5983 120.858 14.2384 120.962 13.8967C121.065 13.5551 121.241 13.2398 121.478 12.9721C121.714 12.7044 122.005 12.4906 122.331 12.3452C122.657 12.1997 123.01 12.126 123.367 12.1291C124.871 12.1291 125.778 13.1563 125.778 14.8531V15.2252H121.962V15.285C121.946 15.4833 121.971 15.6828 122.036 15.8709C122.101 16.059 122.204 16.2315 122.34 16.3772C122.475 16.523 122.639 16.6388 122.822 16.7173C123.005 16.7958 123.202 16.8352 123.401 16.833C123.657 16.8636 123.915 16.8176 124.144 16.701C124.373 16.5844 124.562 16.4023 124.687 16.1779L125.714 16.1779ZM121.962 14.4365H124.692C124.705 14.2552 124.68 14.073 124.619 13.9017C124.558 13.7305 124.462 13.5739 124.337 13.4421C124.211 13.3102 124.06 13.2061 123.892 13.1363C123.724 13.0665 123.543 13.0325 123.362 13.0367C123.177 13.0344 122.994 13.069 122.823 13.1386C122.652 13.2081 122.497 13.3111 122.367 13.4416C122.236 13.572 122.133 13.7273 122.064 13.8981C121.995 14.069 121.96 14.2521 121.962 14.4365H121.962Z" fill="white"/>
	</g>
	<defs>
	<clipPath id="clip0_315_36203">
	<rect width="143.597" height="48" fill="white"/>
	</clipPath>
	</defs>
</svg>
	