<svg width="104" height="104" viewBox="0 0 104 104" fill="none" xmlns="http://www.w3.org/2000/svg">
	<path d="M82.8577 64.4756C88.4823 70.1003 87.8757 79.586 81.0463 84.383C76.7 87.4336 70.629 87.4336 66.2827 84.383C59.449 79.5903 58.8467 70.1003 64.4713 64.4756C69.55 59.397 77.7833 59.397 82.8577 64.4756" stroke="#41CE8E" stroke-width="6" stroke-linecap="round" stroke-linejoin="round"/>
	<path d="M91 91.0001L82.8533 82.8534" stroke="#41CE8E" stroke-width="6" stroke-linecap="round" stroke-linejoin="round"/>
	<path d="M25.1983 23.79C25.1853 23.79 25.1767 23.7987 25.1767 23.8117C25.1767 23.8247 25.1853 23.8334 25.1983 23.8334C25.2113 23.8334 25.22 23.8247 25.22 23.8117C25.22 23.7987 25.2113 23.79 25.1983 23.79" stroke="#41CE8E" stroke-width="6" stroke-linecap="round" stroke-linejoin="round"/>
	<path d="M36.218 23.79C36.205 23.79 36.1963 23.7987 36.1963 23.8117C36.1963 23.8247 36.2093 23.8334 36.218 23.8334C36.231 23.8334 36.2397 23.8247 36.2397 23.8117C36.2397 23.7987 36.231 23.79 36.218 23.79" stroke="#41CE8E" stroke-width="6" stroke-linecap="round" stroke-linejoin="round"/>
	<path d="M47.2203 23.79C47.2073 23.79 47.1987 23.7987 47.1987 23.8117C47.1987 23.8247 47.2073 23.8334 47.2203 23.8334C47.2333 23.8334 47.242 23.8247 47.242 23.8117C47.242 23.7987 47.2333 23.79 47.2203 23.79" stroke="#41CE8E" stroke-width="6" stroke-linecap="round" stroke-linejoin="round"/>
	<path d="M91 47.6667V21.6667C91 16.8783 87.1217 13 82.3333 13H21.6667C16.8783 13 13 16.8783 13 21.6667V82.3333C13 87.1217 16.8783 91 21.6667 91H47.6667" stroke="#41CE8E" stroke-width="6" stroke-linecap="round" stroke-linejoin="round"/>
	<path d="M13.156 34.6667H91" stroke="#41CE8E" stroke-width="6" stroke-linecap="round" stroke-linejoin="round"/>
</svg>
	