<svg width="104" height="104" viewBox="0 0 104 104" fill="none" xmlns="http://www.w3.org/2000/svg">
	<path fill-rule="evenodd" clip-rule="evenodd" d="M52.0007 20.692V83.3032C52.0015 85.6418 50.9404 87.8543 49.1163 89.3176C47.2921 90.781 44.9022 91.337 42.6195 90.829L23.3541 86.5459C19.8282 85.7631 17.3196 82.6361 17.3196 79.0244V24.9751C17.3196 21.362 19.8307 18.2344 23.3584 17.4537L42.6238 13.1705C44.9053 12.6633 47.2937 13.219 49.1169 14.6815C50.94 16.1439 52.0007 18.3548 52.0007 20.692Z" stroke="#41CE8E" stroke-width="6" stroke-linecap="round" stroke-linejoin="round"/>
	<path d="M38.9951 56.4216V47.7513" stroke="#41CE8E" stroke-width="6" stroke-linecap="round" stroke-linejoin="round"/>
	<path d="M86.6816 34.6592V25.8069C86.6822 23.5072 85.7689 21.3015 84.1428 19.6754C82.5167 18.0492 80.311 17.136 78.0113 17.1366H65.0059" stroke="#41CE8E" stroke-width="6" stroke-linecap="round" stroke-linejoin="round"/>
	<path d="M86.6816 69.3407V78.011C86.6822 80.3107 85.7689 82.5164 84.1428 84.1425C82.5167 85.7686 80.311 86.6819 78.0113 86.6813H65.0059" stroke="#41CE8E" stroke-width="6" stroke-linecap="round" stroke-linejoin="round"/>
	<path d="M65.0059 51.9998H86.6816" stroke="#41CE8E" stroke-width="6" stroke-linecap="round" stroke-linejoin="round"/>
	<path d="M78.0111 60.6701L86.6814 51.9999L78.0111 43.3296" stroke="#41CE8E" stroke-width="6" stroke-linecap="round" stroke-linejoin="round"/>
</svg>
	