<svg width="60" height="20" viewBox="0 0 60 20" fill="none" xmlns="http://www.w3.org/2000/svg">
<path d="M7.38952 0H7.92307C9.77541 0.0411215 11.5975 0.801869 12.9063 2.1486C12.423 2.65233 11.9298 3.13551 11.4566 3.63925C10.7217 2.96075 9.83581 2.43645 8.86938 2.2514C7.43985 1.94299 5.89959 2.22056 4.70161 3.05327C3.39289 3.9271 2.50699 5.40747 2.31572 6.99065C2.10431 8.55327 2.53719 10.1981 3.53383 11.4112C4.4902 12.5935 5.94993 13.3336 7.45999 13.385C8.86938 13.4673 10.3392 13.0252 11.366 12.0178C12.1714 11.3084 12.5439 10.229 12.6647 9.18037C10.9935 9.18037 9.32239 9.19065 7.65126 9.18037V7.06261H14.6881C15.0506 9.33457 14.5271 11.8944 12.8358 13.5187C11.7083 14.6701 10.1479 15.3486 8.5573 15.4822C7.01704 15.6364 5.42644 15.3383 4.05732 14.5776C2.41639 13.6832 1.10767 12.172 0.463378 10.3935C-0.140646 8.75887 -0.150713 6.90841 0.413043 5.26355C0.926463 3.76261 1.91304 2.43645 3.18149 1.51121C4.3996 0.596261 5.87946 0.0925233 7.38952 0Z" fill="#121C30"/>
<path d="M47.7585 0.534668H49.9128V15.215C49.1981 15.215 48.4732 15.2253 47.7585 15.2048C47.7686 10.3216 47.7585 5.42812 47.7585 0.534668Z" fill="#121C30"/>
<path d="M19.4801 5.62342C20.809 5.36641 22.2485 5.65426 23.3458 6.46641C24.3425 7.18604 25.0371 8.31688 25.2485 9.55052C25.5203 10.9795 25.1781 12.5421 24.272 13.6729C23.2955 14.9374 21.6949 15.6159 20.1345 15.5131C18.7049 15.4309 17.3157 14.701 16.47 13.5085C15.5137 12.1926 15.2821 10.3832 15.8056 8.84118C16.3291 7.18604 17.809 5.92155 19.4801 5.62342ZM19.7821 7.57669C19.2385 7.72062 18.7351 8.03931 18.3727 8.49164C17.3962 9.68417 17.4566 11.6272 18.5338 12.7374C19.1479 13.3748 20.0741 13.6729 20.9298 13.4982C21.7251 13.3543 22.4197 12.8094 22.8022 12.0898C23.4667 10.8664 23.2754 9.18043 22.2586 8.22435C21.6042 7.60753 20.6479 7.35052 19.7821 7.57669Z" fill="#121C30"/>
<path d="M30.1511 5.62345C31.6713 5.32531 33.3323 5.75709 34.4699 6.84681C36.3223 8.54307 36.5236 11.7197 34.9431 13.673C33.9867 14.9066 32.4364 15.5851 30.9062 15.5132C29.4464 15.472 28.0069 14.7319 27.1411 13.5085C26.1646 12.1618 25.9532 10.3113 26.5069 8.7384C27.0606 7.13466 28.5102 5.9113 30.1511 5.62345ZM30.4532 7.57672C29.9095 7.72064 29.4062 8.03933 29.0438 8.48139C28.0773 9.65335 28.1176 11.5655 29.1545 12.6861C29.7686 13.3543 30.725 13.6833 31.6109 13.4982C32.3961 13.344 33.1008 12.8094 33.4833 12.0898C34.1377 10.8562 33.9464 9.17017 32.9196 8.2141C32.2652 7.59728 31.3089 7.35055 30.4532 7.57672Z" fill="#121C30"/>
<path d="M39.2014 6.21954C40.3591 5.47935 41.8994 5.27374 43.1477 5.91113C43.5403 6.08589 43.8625 6.38402 44.1746 6.68215C44.1846 6.40458 44.1746 6.11673 44.1846 5.82888C44.8591 5.83916 45.5336 5.82888 46.2182 5.83916V14.9065C46.2081 16.2737 45.8658 17.7233 44.8994 18.7205C43.8423 19.8205 42.2215 20.1597 40.7618 19.9335C39.2014 19.6971 37.8424 18.5354 37.2383 17.0653C37.8424 16.7672 38.4766 16.5307 39.1008 16.2532C39.4531 17.0962 40.1679 17.8158 41.0638 17.9803C41.9598 18.1448 42.9967 17.9186 43.5806 17.1579C44.2048 16.3765 44.2048 15.3074 44.1746 14.3513C43.7115 14.8139 43.1779 15.2251 42.5336 15.3793C41.1343 15.7803 39.594 15.2868 38.5169 14.3205C37.4296 13.3541 36.7853 11.8635 36.8457 10.3831C36.8759 8.70739 37.8021 7.09337 39.2014 6.21954ZM41.2853 7.53543C40.6712 7.63823 40.0974 7.98776 39.7048 8.47094C38.7585 9.62234 38.7585 11.4625 39.7148 12.5934C40.2585 13.2616 41.1343 13.6317 41.9799 13.5392C42.7752 13.4569 43.5101 12.9429 43.9027 12.2336C44.5672 11.0308 44.4564 9.39617 43.5605 8.34757C43.0068 7.69991 42.1209 7.38122 41.2853 7.53543Z" fill="#121C30"/>
<path d="M52.5 6.74391C53.7081 5.5925 55.5705 5.20185 57.1208 5.80839C58.5906 6.37381 59.5268 7.80278 60 9.27288C57.8154 10.1981 55.641 11.1131 53.4564 12.0383C53.7584 12.6243 54.2215 13.1589 54.8457 13.3747C55.7215 13.6934 56.7685 13.5804 57.5034 12.9841C57.7953 12.7579 58.0269 12.4598 58.2483 12.1719C58.802 12.5523 59.3557 12.9224 59.9094 13.3028C59.1242 14.5056 57.8054 15.3486 56.3859 15.4822C54.8155 15.6775 53.1443 15.0607 52.1276 13.8065C50.4564 11.8327 50.6175 8.52241 52.5 6.74391ZM53.5772 8.64577C53.2349 9.14951 53.094 9.76634 53.1041 10.3729C54.5638 9.75605 56.0235 9.13923 57.4832 8.51213C57.2416 7.93643 56.6577 7.5869 56.0638 7.49437C55.1074 7.31961 54.1108 7.84391 53.5772 8.64577Z" fill="#121C30"/>
</svg>
