<svg width="104" height="104" viewBox="0 0 104 104" fill="none" xmlns="http://www.w3.org/2000/svg">
	<path d="M39 86.6666V65C39 62.6067 40.9401 60.6666 43.3333 60.6666H52" stroke="#41CE8E" stroke-width="6" stroke-linecap="round" stroke-linejoin="round"/>
	<path d="M80.1667 71.2834C80.047 71.2834 79.95 71.3804 79.95 71.5C79.95 71.6197 80.047 71.7167 80.1667 71.7167C80.2863 71.7167 80.3833 71.6197 80.3833 71.5C80.3833 71.3804 80.2863 71.2834 80.1667 71.2834V71.2834" stroke="#41CE8E" stroke-width="6" stroke-linecap="round" stroke-linejoin="round"/>
	<path d="M65.8562 76.3317L57.5993 84.6053C56.7886 85.4177 56.3333 86.5185 56.3333 87.6661V91C56.3333 93.3932 58.2734 95.3333 60.6666 95.3333H64.0082C65.159 95.3333 66.2626 94.8756 67.0755 94.061L75.3192 85.8003" stroke="#41CE8E" stroke-width="6" stroke-linecap="round" stroke-linejoin="round"/>
	<path d="M13 45.8478L46.3597 17.2531C49.6053 14.4711 54.3947 14.4711 57.6403 17.2531L91 45.8478" stroke="#41CE8E" stroke-width="6" stroke-linecap="round" stroke-linejoin="round"/>
	<path d="M43.3333 86.6667H13" stroke="#41CE8E" stroke-width="6" stroke-linecap="round" stroke-linejoin="round"/>
	<path d="M67.7024 25.8779V16.25C67.7024 14.4551 69.1575 13 70.9524 13H82.1797C83.9746 13 85.4297 14.4551 85.4297 16.25V41.073" stroke="#41CE8E" stroke-width="6" stroke-linecap="round" stroke-linejoin="round"/>
	<path d="M18.5705 41.073V86.6666" stroke="#41CE8E" stroke-width="6" stroke-linecap="round" stroke-linejoin="round"/>
	<path d="M65.8601 76.3353C65.3099 74.7817 65.0193 73.1481 65 71.5C65 65.3657 68.6952 59.8353 74.3626 57.4878C80.03 55.1403 86.5535 56.4379 90.8911 60.7755C95.2288 65.1132 96.5263 71.6366 94.1788 77.304C91.8313 82.9714 86.301 86.6667 80.1667 86.6667C78.5155 86.6473 76.8788 86.3557 75.3226 85.8036" stroke="#41CE8E" stroke-width="6" stroke-linecap="round" stroke-linejoin="round"/>
</svg>
	