<svg width="163" height="48" viewBox="0 0 163 48" fill="none" xmlns="http://www.w3.org/2000/svg">
	<g clip-path="url(#clip0_315_36204)">
	<path d="M155.94 47.8806H6.68646C3.40288 47.8806 0.716309 45.1941 0.716309 41.9105V6.0896C0.716309 2.80602 3.40288 0.11945 6.68646 0.11945H155.94C159.224 0.11945 161.91 2.80602 161.91 6.0896V41.9105C161.91 45.1941 159.224 47.8806 155.94 47.8806Z" fill="black"/>
	<path d="M155.94 0.11945H6.68646C3.40288 0.11945 0.716309 2.80602 0.716309 6.0896V41.9105C0.716309 45.1941 3.40288 47.8806 6.68646 47.8806H155.94C159.224 47.8806 161.91 45.1941 161.91 41.9105V6.0896C161.91 2.80602 159.224 0.11945 155.94 0.11945ZM155.94 1.07467C158.706 1.07467 160.955 3.3247 160.955 6.0896V41.9105C160.955 44.6759 158.706 46.9259 155.94 46.9259H6.68646C3.92156 46.9259 1.67153 44.6759 1.67153 41.9105V6.0896C1.67153 3.3247 3.92156 1.07467 6.68646 1.07467H155.94Z" fill="black"/>
	<path d="M57.3353 12.3503C57.3353 13.3506 57.039 14.1473 56.4457 14.7416C55.7718 15.4482 54.8935 15.8017 53.8137 15.8017C52.7797 15.8017 51.9005 15.4435 51.1775 14.7262C50.4532 14.0093 50.0918 13.1203 50.0918 12.0597C50.0918 10.9985 50.4532 10.11 51.1775 9.39267C51.9005 8.67577 52.7797 8.31708 53.8137 8.31708C54.3268 8.31708 54.818 8.41738 55.2844 8.6175C55.7508 8.8181 56.1249 9.08437 56.4047 9.41786L55.775 10.048C55.3007 9.48126 54.6477 9.19816 53.8137 9.19816C53.0596 9.19816 52.4075 9.46311 51.8572 9.99338C51.3067 10.5242 51.0316 11.2126 51.0316 12.0597C51.0316 12.9067 51.3067 13.5951 51.8572 14.1259C52.4075 14.6562 53.0596 14.9211 53.8137 14.9211C54.6137 14.9211 55.2807 14.6548 55.8147 14.1213C56.1613 13.7737 56.3618 13.2906 56.4154 12.6702H53.8137V11.8096H57.2853C57.3189 11.9967 57.3353 12.1763 57.3353 12.3503Z" fill="white"/>
	<path d="M57.3353 12.3504H57.2159C57.2149 13.3279 56.9294 14.0872 56.3613 14.6572L56.36 14.6582L56.3595 14.6592C55.707 15.3414 54.8683 15.681 53.8137 15.6824C52.8073 15.681 51.9649 15.3377 51.2615 14.6418C50.5596 13.9445 50.2125 13.0933 50.2112 12.0598C50.2125 11.0257 50.5596 10.175 51.2615 9.47814C51.9649 8.78179 52.8073 8.43803 53.8137 8.43659C54.3114 8.43659 54.7853 8.53367 55.2372 8.72722C55.6897 8.9222 56.047 9.17773 56.3133 9.49498L56.4048 9.41797L56.3204 9.33355L55.6906 9.96412L55.775 10.0481L55.867 9.97164C55.3706 9.37689 54.6739 9.07707 53.8137 9.07886C53.0316 9.07791 52.3436 9.35731 51.7746 9.90775C51.2 10.46 50.9113 11.187 50.9122 12.0598C50.9113 12.9325 51.2 13.6595 51.7746 14.2118C52.3436 14.7622 53.0316 15.0416 53.8137 15.0407C54.6402 15.0421 55.3446 14.7617 55.8991 14.2058C56.2695 13.8344 56.4794 13.3201 56.5344 12.6805L56.5456 12.5509H53.9331V11.9291H57.2854V11.8097L57.1678 11.8307C57.2005 12.0118 57.2159 12.1838 57.2159 12.3504H57.3353H57.4547C57.4547 12.1689 57.4378 11.9824 57.4029 11.7884L57.3852 11.6903H53.6943V12.6703V12.7897H56.4154V12.6703L56.2965 12.66C56.2438 13.2608 56.0525 13.7132 55.7303 14.0369C55.2172 14.5481 54.5876 14.8004 53.8137 14.8018C53.0875 14.8009 52.4714 14.5509 51.9402 14.0402C51.4141 13.5313 51.1524 12.8816 51.151 12.0598C51.1524 11.2379 51.4141 10.5882 51.9402 10.0793C52.4714 9.56865 53.0875 9.31862 53.8137 9.31767C54.6211 9.31958 55.2308 9.58632 55.6837 10.1251L55.7676 10.2249L56.4892 9.50238L56.5666 9.42501L56.4961 9.34143C56.2027 8.9917 55.8119 8.71408 55.3315 8.508C54.8501 8.30131 54.3422 8.19779 53.8137 8.19779C52.7522 8.19683 51.8362 8.56997 51.0931 9.30835C50.3473 10.0453 49.9715 10.9716 49.9724 12.0598C49.9715 13.1474 50.3473 14.0742 51.0936 14.8116C51.8362 15.5495 52.7522 15.9222 53.8137 15.9212C54.9192 15.9222 55.8362 15.555 56.5321 14.8242L56.4457 14.7417L56.5301 14.8261C57.1487 14.2081 57.4555 13.3732 57.4547 12.3504H57.3353Z" fill="white"/>
	<path d="M62.8389 9.35778H59.5764V11.6293H62.5186V12.4902H59.5764V14.7617H62.8389V15.6418H58.6566V8.47766H62.8389V9.35778Z" fill="white"/>
	<path d="M62.839 9.35775V9.23835H59.457V11.7487H62.3992V12.3704L59.457 12.3708V14.8811H62.7196V15.5224H58.776V8.59704H62.7196V9.35775H62.839V9.23835V9.35775H62.9584V8.47763V8.35823H58.5372V15.7612H62.9584V14.7617V14.6423H59.6958V12.6096H62.638V11.6293V11.5099H59.6958V9.47716H62.9584V9.35775H62.839Z" fill="white"/>
	<path d="M66.721 15.6418H65.7998V9.35778H63.7988V8.47766H68.7219V9.35778H66.721V15.6418Z" fill="white"/>
	<path d="M66.721 15.6418V15.5224H65.9192V9.23835H63.9182V8.59704H68.6025V9.23835H66.6016V15.6418H66.721V15.5224V15.6418H66.8404V9.47716H68.8413V8.47763V8.35823H63.6794V9.35775V9.47716H65.6804V15.7612H66.721H66.8404V15.6418H66.721Z" fill="white"/>
	<path d="M72.2839 15.6418V8.47766H73.2042V15.6418H72.2839Z" fill="white"/>
	<path d="M72.284 15.6418H72.4034V8.59704H73.0848V15.5224H72.284V15.6418H72.4034H72.284V15.7612H73.2042H73.3236V8.35823H72.284H72.1646V15.7612H72.284V15.6418Z" fill="white"/>
	<path d="M77.2876 15.6418H76.3664V9.35778H74.3656V8.47766H79.2886V9.35778H77.2876V15.6418Z" fill="white"/>
	<path d="M77.2876 15.6418V15.5224H76.4859V9.23835H74.485V8.59704H79.1692V9.23835H77.1682V15.6418H77.2876V15.5224V15.6418H77.407V9.47716H79.408V8.47763V8.35823H74.2462V9.35775V9.47716H76.247V15.7612H77.2876H77.407V15.6418H77.2876Z" fill="white"/>
	<path d="M84.0348 14.1161C84.5651 14.653 85.2139 14.9211 85.9812 14.9211C86.7485 14.9211 87.3977 14.653 87.9271 14.1161C88.4579 13.5793 88.7238 12.8931 88.7238 12.0597C88.7238 11.2262 88.4579 10.54 87.9271 10.0032C87.3977 9.46634 86.7485 9.19816 85.9812 9.19816C85.2139 9.19816 84.5651 9.46634 84.0348 10.0032C83.5054 10.54 83.2396 11.2262 83.2396 12.0597C83.2396 12.8931 83.5054 13.5793 84.0348 14.1161ZM88.6081 14.7159C87.9037 15.4402 87.0278 15.8017 85.9812 15.8017C84.9336 15.8017 84.0581 15.4402 83.3553 14.7159C82.6505 13.9924 82.2998 13.1068 82.2998 12.0597C82.2998 11.0125 82.6505 10.1268 83.3553 9.40341C84.0581 8.67899 84.9336 8.31708 85.9812 8.31708C87.0223 8.31708 87.8959 8.6809 88.6034 9.40807C89.3101 10.1352 89.6636 11.0191 89.6636 12.0597C89.6636 13.1068 89.3109 13.9924 88.6081 14.7159Z" fill="white"/>
	<path d="M84.0349 14.1162L83.95 14.2002C84.4999 14.7585 85.186 15.0421 85.9813 15.0407C86.776 15.0421 87.4631 14.7585 88.0121 14.2002C88.5656 13.6414 88.8441 12.9184 88.8432 12.0598C88.8441 11.2011 88.5656 10.4781 88.0121 9.91934C87.4631 9.36101 86.776 9.07743 85.9813 9.07886C85.186 9.07743 84.4999 9.36101 83.95 9.91934C83.3977 10.4781 83.1188 11.2011 83.1202 12.0598C83.1188 12.9184 83.3977 13.6414 83.95 14.2002L84.0349 14.1162L84.1198 14.0323C83.6133 13.5168 83.36 12.8685 83.359 12.0598C83.36 11.251 83.6133 10.6027 84.1198 10.0872C84.6309 9.57188 85.2414 9.3191 85.9813 9.31767C86.7205 9.3191 87.3324 9.57188 87.8423 10.0872C88.3497 10.6027 88.603 11.251 88.604 12.0598C88.603 12.8685 88.3497 13.5168 87.8423 14.0323C87.3324 14.5476 86.7205 14.8004 85.9813 14.8018C85.2414 14.8004 84.6309 14.5476 84.1198 14.0323L84.0349 14.1162ZM88.6081 14.716L88.5228 14.633C87.8381 15.3345 87.0008 15.681 85.9813 15.6824C84.9612 15.681 84.1239 15.3345 83.4406 14.633L83.4374 14.6293L83.4406 14.633C82.7574 13.9291 82.4202 13.0803 82.4192 12.0598C82.4202 11.0392 82.7574 10.1904 83.4406 9.4865C84.1239 8.78501 84.9612 8.43802 85.9813 8.43659C86.9943 8.43802 87.8296 8.78644 88.5181 9.49164C89.2037 10.1987 89.5428 11.0463 89.5443 12.0598C89.5428 13.0803 89.2047 13.9291 88.5228 14.633L88.6081 14.716L88.694 14.799C89.4178 14.0556 89.7839 13.1334 89.7831 12.0598C89.7839 10.9922 89.4164 10.0719 88.6892 9.32519C87.9617 8.57558 87.0503 8.19647 85.9813 8.19779C84.9066 8.19647 83.9925 8.57378 83.2695 9.32053V9.32005C82.5442 10.0639 82.1795 10.9861 82.1804 12.0598C82.1795 13.1334 82.5442 14.0556 83.2695 14.7995L83.2727 14.8028L83.2695 14.799C83.9925 15.5457 84.9066 15.9222 85.9813 15.9212C87.0554 15.9222 87.9696 15.5457 88.694 14.799L88.6081 14.716Z" fill="white"/>
	<path d="M90.9556 15.6418V8.47766H92.076L95.5578 14.0509H95.5974L95.5578 12.6703V8.47766H96.479V15.6418H95.5181L91.8754 9.7985H91.8357L91.8754 11.1796V15.6418H90.9556Z" fill="white"/>
	<path d="M90.9556 15.6418H91.075V8.59704H92.0097L95.4915 14.1703H95.5974H95.72L95.6771 12.6684V8.59704H96.3595V15.5224H95.5844L91.9416 9.67907H91.8357H91.7131L91.7559 11.1815V15.5224H90.9556V15.6418H91.075H90.9556V15.7612H91.8753H91.9947V11.1777L91.9551 9.79525L91.8357 9.79847V9.91787H91.8753V9.79847L91.7741 9.86199L95.4518 15.7612H96.4789H96.5983V8.35823H95.5577H95.4383V12.6717L95.478 14.0541L95.5974 14.0509V13.9315H95.5577V14.0509L95.659 13.9875L92.1421 8.35823H90.9556H90.8362V15.7612H90.9556V15.6418Z" fill="white"/>
	<path d="M128.401 35.9403H130.629V21.0135H128.401V35.9403ZM148.469 26.3905L145.915 32.862H145.839L143.188 26.3905H140.788L144.763 35.4356L142.497 40.4669H144.821L150.947 26.3905H148.469ZM135.834 34.2449C135.103 34.2449 134.086 33.8802 134.086 32.9772C134.086 31.8251 135.354 31.3834 136.448 31.3834C137.428 31.3834 137.888 31.5947 138.483 31.883C138.31 33.2655 137.12 34.2449 135.834 34.2449ZM136.103 26.0639C134.489 26.0639 132.819 26.7747 132.128 28.3494L134.105 29.175C134.528 28.3494 135.315 28.0803 136.141 28.0803C137.293 28.0803 138.464 28.772 138.483 30.001V30.1544C138.08 29.924 137.217 29.5784 136.16 29.5784C134.029 29.5784 131.858 30.7495 131.858 32.9389C131.858 34.9362 133.606 36.223 135.564 36.223C137.063 36.223 137.888 35.5508 138.407 34.7636H138.483V35.9156H140.634V30.1926C140.634 27.543 138.657 26.0639 136.103 26.0639ZM122.333 28.2076H119.164V23.091H122.333C123.999 23.091 124.944 24.4701 124.944 25.6492C124.944 26.806 123.999 28.2076 122.333 28.2076ZM122.276 21.0135H116.937V35.9403H119.164V30.285H122.276C124.745 30.285 127.172 28.4972 127.172 25.6492C127.172 22.8013 124.745 21.0135 122.276 21.0135ZM93.1641 34.2477C91.6248 34.2477 90.3361 32.959 90.3361 31.1889C90.3361 29.4003 91.6248 28.092 93.1641 28.092C94.6837 28.092 95.8763 29.4003 95.8763 31.1889C95.8763 32.959 94.6837 34.2477 93.1641 34.2477ZM95.7224 27.2263H95.6454C95.1454 26.6301 94.1832 26.0915 92.9715 26.0915C90.4323 26.0915 88.1048 28.3228 88.1048 31.1889C88.1048 34.036 90.4323 36.2482 92.9715 36.2482C94.1832 36.2482 95.1454 35.7094 95.6454 35.0942H95.7224V35.8251C95.7224 37.7683 94.6837 38.807 93.0102 38.807C91.6444 38.807 90.798 37.8256 90.4514 36.9986L88.5088 37.8065C89.0666 39.153 90.548 40.8074 93.0102 40.8074C95.6263 40.8074 97.8385 39.2682 97.8385 35.5173V26.3993H95.7224V27.2263ZM99.3772 35.9403H101.609V21.013H99.3772V35.9403ZM104.898 31.0159C104.84 29.0536 106.418 28.0536 107.553 28.0536C108.438 28.0536 109.188 28.4958 109.438 29.1311L104.898 31.0159ZM111.823 29.3233C111.4 28.188 110.111 26.0915 107.476 26.0915C104.859 26.0915 102.686 28.1498 102.686 31.1698C102.686 34.0169 104.84 36.2482 107.726 36.2482C110.054 36.2482 111.4 34.8246 111.958 33.9976L110.227 32.8433C109.65 33.6898 108.861 34.2477 107.726 34.2477C106.591 34.2477 105.783 33.7282 105.263 32.7089L112.054 29.9002L111.823 29.3233ZM57.7238 27.6497V29.8041H62.879C62.7251 31.0159 62.3212 31.9007 61.7056 32.5163C60.9556 33.2668 59.7821 34.0938 57.7238 34.0938C54.5497 34.0938 52.0684 31.5354 52.0684 28.3615C52.0684 25.1875 54.5497 22.6288 57.7238 22.6288C59.4359 22.6288 60.686 23.3022 61.6094 24.1679L63.1291 22.6484C61.8404 21.417 60.1281 20.4744 57.7238 20.4744C53.3762 20.4744 49.7214 24.014 49.7214 28.3615C49.7214 32.7089 53.3762 36.2482 57.7238 36.2482C60.0708 36.2482 61.8404 35.4791 63.2252 34.036C64.6487 32.6124 65.0913 30.612 65.0913 28.9963C65.0913 28.4958 65.053 28.0345 64.9756 27.6497H57.7238ZM70.9524 34.2477C69.4131 34.2477 68.0857 32.9781 68.0857 31.1698C68.0857 29.3424 69.4131 28.092 70.9524 28.092C72.491 28.092 73.8184 29.3424 73.8184 31.1698C73.8184 32.9781 72.491 34.2477 70.9524 34.2477ZM70.9524 26.0915C68.1435 26.0915 65.8543 28.2267 65.8543 31.1698C65.8543 34.0938 68.1435 36.2482 70.9524 36.2482C73.7606 36.2482 76.0498 34.0938 76.0498 31.1698C76.0498 28.2267 73.7606 26.0915 70.9524 26.0915ZM82.0726 34.2477C80.534 34.2477 79.2065 32.9781 79.2065 31.1698C79.2065 29.3424 80.534 28.092 82.0726 28.092C83.6114 28.092 84.9388 29.3424 84.9388 31.1698C84.9388 32.9781 83.6114 34.2477 82.0726 34.2477ZM82.0726 26.0915C79.2639 26.0915 76.9752 28.2267 76.9752 31.1698C76.9752 34.0938 79.2639 36.2482 82.0726 36.2482C84.881 36.2482 87.1702 34.0938 87.1702 31.1698C87.1702 28.2267 84.881 26.0915 82.0726 26.0915Z" fill="white"/>
	<path d="M13.2653 38.7934L13.1766 38.7085C12.8292 38.3409 12.624 37.77 12.624 37.0308V37.2048V10.7976C12.624 10.7952 12.624 10.7934 12.624 10.7915C12.624 10.7938 12.624 10.7957 12.624 10.7981V10.9725C12.624 10.172 12.8632 9.56906 13.2639 9.2075L28.0577 24.0009L13.2653 38.7934ZM12.624 10.7901C12.624 10.7243 12.6258 10.6604 12.6292 10.5975C12.6258 10.6599 12.624 10.7243 12.624 10.7901ZM12.6292 10.5946C12.6292 10.5938 12.6292 10.5928 12.6295 10.5919C12.6292 10.5928 12.6292 10.5938 12.6292 10.5946ZM12.6295 10.5863C12.6295 10.5858 12.6295 10.5853 12.6295 10.5848C12.6295 10.5853 12.6295 10.5858 12.6295 10.5863Z" fill="url(#paint0_linear_315_36204)"/>
	<path d="M32.9882 29.1086L33.1007 29.0447L38.943 25.7252C39.5 25.4086 39.8712 25.0247 40.0564 24.6185C39.8717 25.0247 39.5004 25.409 38.943 25.7257L33.1007 29.0452L32.9882 29.1086ZM32.9897 28.9337L28.0577 24.0009L32.9892 19.069L38.943 22.4514C39.6991 22.881 40.1235 23.4347 40.1945 24.0004C40.1945 24.0009 40.1945 24.0019 40.1945 24.0027C40.1235 24.5671 39.6991 25.1213 38.943 25.5508L32.9897 28.9337Z" fill="url(#paint1_linear_315_36204)"/>
	<path d="M14.3198 39.3568C13.9066 39.3568 13.546 39.2225 13.2648 38.9687L13.2653 38.9683C13.5465 39.222 13.9075 39.3568 14.3208 39.3568C14.3566 39.3568 14.393 39.3558 14.4299 39.354C14.3926 39.3558 14.3557 39.3568 14.3198 39.3568ZM14.3203 39.1819C13.9071 39.1823 13.5465 39.0475 13.2653 38.7938V38.7935L28.0576 24.001L32.9896 28.9337L15.658 38.7813C15.1785 39.0532 14.7241 39.1819 14.3203 39.1819ZM13.2611 38.9655C13.2349 38.9418 13.2093 38.9166 13.1841 38.8904L13.2611 38.9655Z" fill="url(#paint2_linear_315_36204)"/>
	<path d="M28.0577 24.0009L13.2639 9.20747C13.5451 8.95422 13.9052 8.81989 14.318 8.81989C14.7229 8.81989 15.1776 8.94908 15.6581 9.22144L32.9892 19.069L28.0577 24.0009ZM33.1007 18.9576L15.6581 9.04711C15.1776 8.77463 14.7229 8.64544 14.318 8.64544C14.3161 8.64544 14.3148 8.64544 14.3129 8.64544C14.3153 8.64544 14.317 8.64544 14.3199 8.64544C14.7239 8.64544 15.1781 8.77415 15.6581 9.04663L33.1007 18.9576Z" fill="url(#paint3_linear_315_36204)"/>
	<path d="M14.43 39.354C14.8054 39.3325 15.2211 39.2033 15.6581 38.9557L32.9882 29.1086L15.6581 38.9557C15.2214 39.2038 14.8054 39.3325 14.43 39.354ZM13.2649 38.9687L13.2612 38.9655C13.2625 38.9664 13.2639 38.9677 13.2649 38.9687ZM13.1842 38.8903L13.1766 38.8829V38.8825C13.1795 38.8852 13.1818 38.888 13.1842 38.8903Z" fill="black"/>
	<path d="M32.9882 29.1086L33.1006 29.0447L32.9882 29.1086Z" fill="url(#paint4_linear_315_36204)"/>
	<path d="M14.3209 39.3568C13.9076 39.3568 13.5465 39.222 13.2654 38.9683L13.2649 38.9687C13.2639 38.9678 13.2625 38.9665 13.2612 38.9655L13.1842 38.8904C13.1818 38.888 13.1795 38.8853 13.1766 38.8825L13.2654 38.7938C13.5465 39.0475 13.9071 39.1823 14.3204 39.1819C14.7242 39.1819 15.1785 39.0532 15.6581 38.7813L32.9897 28.9338L33.1007 29.0448L32.9882 29.1087L15.6581 38.9557C15.2211 39.2034 14.8054 39.3326 14.43 39.354C14.3931 39.3558 14.3567 39.3568 14.3209 39.3568Z" fill="url(#paint5_linear_315_36204)"/>
	<path d="M13.1766 38.883C12.8292 38.5154 12.624 37.9445 12.624 37.2053V37.2048C12.624 37.9445 12.8292 38.5149 13.1766 38.8825V38.883Z" fill="black"/>
	<path d="M13.1766 38.8826C12.8292 38.5149 12.624 37.9445 12.624 37.2048V37.0309C12.624 37.7701 12.8292 38.341 13.1766 38.7086L13.2653 38.7935L13.1766 38.8826Z" fill="url(#paint6_linear_315_36204)"/>
	<path d="M13.1766 38.8826L13.2654 38.7935V38.7939L13.1766 38.8826Z" fill="url(#paint7_linear_315_36204)"/>
	<path d="M40.0564 24.6185C40.1482 24.417 40.1944 24.2099 40.1944 24.0028C40.1944 24.0024 40.1944 24.0019 40.1944 24.0019C40.1944 24.2094 40.1482 24.4165 40.0564 24.6185Z" fill="black"/>
	<path d="M33.1007 29.0448L32.9896 28.9337L38.9429 25.5508C39.699 25.1213 40.1235 24.5672 40.1944 24.0027C40.1944 24.2099 40.1482 24.4169 40.0564 24.6185C39.8712 25.0247 39.5 25.4086 38.9429 25.7252L33.1007 29.0448Z" fill="url(#paint8_linear_315_36204)"/>
	<path d="M40.1944 24.0009V24.0004C40.194 23.3758 39.7765 22.7513 38.943 22.2774L33.1007 18.9579H33.1002L33.1007 18.9576L38.943 22.277C39.7775 22.7509 40.1954 23.3763 40.1944 24.0009Z" fill="#404040"/>
	<path d="M40.1944 24.0005C40.1235 23.4347 39.699 22.8811 38.9429 22.4514L32.9891 19.069L33.1002 18.958H33.1007L38.9429 22.2775C39.7765 22.7514 40.1939 23.3759 40.1944 24.0005Z" fill="url(#paint9_linear_315_36204)"/>
	<path d="M12.624 10.7915C12.624 10.791 12.624 10.7905 12.624 10.7901C12.624 10.7905 12.624 10.791 12.624 10.7915ZM12.6292 10.5975C12.6292 10.5965 12.6292 10.5956 12.6292 10.5946C12.6292 10.5956 12.6292 10.5965 12.6292 10.5975ZM12.6295 10.5919C12.6295 10.59 12.6295 10.5882 12.6295 10.5863C12.6295 10.5882 12.6295 10.59 12.6295 10.5919ZM12.6295 10.5848C12.6986 9.35819 13.3656 8.64966 14.3092 8.64548C13.9001 8.64787 13.5438 8.78219 13.2649 9.03354V9.03306L13.2615 9.0364C13.2321 9.06291 13.2042 9.09097 13.1766 9.11986C12.8632 9.45145 12.6655 9.94816 12.6295 10.5848Z" fill="#404040"/>
	<path d="M12.624 10.9725V10.7981C12.624 10.7957 12.624 10.7938 12.624 10.7915C12.624 10.791 12.624 10.7906 12.624 10.7901C12.624 10.7243 12.6258 10.6599 12.6292 10.5975C12.6292 10.5965 12.6292 10.5956 12.6292 10.5946C12.6292 10.5938 12.6292 10.5928 12.6295 10.5919C12.6295 10.59 12.6295 10.5882 12.6295 10.5863C12.6295 10.5858 12.6295 10.5853 12.6295 10.5848C12.6655 9.94818 12.8632 9.45146 13.1766 9.11988L13.2639 9.20752C12.8632 9.56907 12.624 10.1721 12.624 10.9725ZM13.2615 9.03641L13.2649 9.03307C13.2639 9.0345 13.2625 9.03546 13.2615 9.03641Z" fill="url(#paint10_linear_315_36204)"/>
	<path d="M32.9892 19.069L15.6581 9.22145C15.1776 8.94909 14.7229 8.81989 14.318 8.81989C13.9052 8.81989 13.5451 8.95422 13.2639 9.20748L13.1766 9.11983C13.2042 9.09094 13.2322 9.06288 13.2615 9.03637C13.2625 9.03542 13.2639 9.03446 13.2649 9.03351C13.5438 8.78216 13.9001 8.64783 14.3092 8.64545C14.3101 8.64545 14.3114 8.64545 14.3129 8.64545C14.3148 8.64545 14.3161 8.64545 14.318 8.64545C14.7229 8.64545 15.1776 8.77464 15.6581 9.04712L33.1007 18.9576L33.1002 18.9579L32.9892 19.069Z" fill="url(#paint11_linear_315_36204)"/>
	</g>
	<defs>
	<linearGradient id="paint0_linear_315_36204" x1="26.7459" y1="10.519" x2="6.70713" y2="30.5578" gradientUnits="userSpaceOnUse">
	<stop stop-color="#00A0FF"/>
	<stop offset="0.00657445" stop-color="#00A1FF"/>
	<stop offset="0.2601" stop-color="#00BEFF"/>
	<stop offset="0.5122" stop-color="#00D2FF"/>
	<stop offset="0.7604" stop-color="#00DFFF"/>
	<stop offset="1" stop-color="#00E3FF"/>
	</linearGradient>
	<linearGradient id="paint1_linear_315_36204" x1="41.1157" y1="24.0016" x2="12.2237" y2="24.0016" gradientUnits="userSpaceOnUse">
	<stop stop-color="#FFE000"/>
	<stop offset="0.4087" stop-color="#FFBD00"/>
	<stop offset="0.7754" stop-color="#FFA500"/>
	<stop offset="1" stop-color="#FF9C00"/>
	</linearGradient>
	<linearGradient id="paint2_linear_315_36204" x1="30.3604" y1="26.7416" x2="3.18634" y2="53.9157" gradientUnits="userSpaceOnUse">
	<stop stop-color="#FF3A44"/>
	<stop offset="1" stop-color="#C31162"/>
	</linearGradient>
	<linearGradient id="paint3_linear_315_36204" x1="9.42953" y1="0.329739" x2="21.5639" y2="12.4641" gradientUnits="userSpaceOnUse">
	<stop stop-color="#32A071"/>
	<stop offset="0.0685" stop-color="#2DA771"/>
	<stop offset="0.4762" stop-color="#15CF74"/>
	<stop offset="0.8009" stop-color="#06E775"/>
	<stop offset="1" stop-color="#00F076"/>
	</linearGradient>
	<linearGradient id="paint4_linear_315_36204" x1="41.1157" y1="24.0018" x2="12.2232" y2="24.0018" gradientUnits="userSpaceOnUse">
	<stop stop-color="#CCB300"/>
	<stop offset="0.4087" stop-color="#CC9700"/>
	<stop offset="0.7754" stop-color="#CC8400"/>
	<stop offset="1" stop-color="#CC7D00"/>
	</linearGradient>
	<linearGradient id="paint5_linear_315_36204" x1="30.3605" y1="26.7416" x2="3.18643" y2="53.9157" gradientUnits="userSpaceOnUse">
	<stop stop-color="#CC2E36"/>
	<stop offset="1" stop-color="#9C0E4E"/>
	</linearGradient>
	<linearGradient id="paint6_linear_315_36204" x1="26.746" y1="10.5191" x2="6.70713" y2="30.5579" gradientUnits="userSpaceOnUse">
	<stop stop-color="#008DE0"/>
	<stop offset="0.00657445" stop-color="#008DE0"/>
	<stop offset="0.2601" stop-color="#00A7E0"/>
	<stop offset="0.5122" stop-color="#00B8E0"/>
	<stop offset="0.7604" stop-color="#00C4E0"/>
	<stop offset="1" stop-color="#00C7E0"/>
	</linearGradient>
	<linearGradient id="paint7_linear_315_36204" x1="30.3611" y1="26.7419" x2="3.18744" y2="53.9169" gradientUnits="userSpaceOnUse">
	<stop stop-color="#E0333C"/>
	<stop offset="1" stop-color="#AB0F56"/>
	</linearGradient>
	<linearGradient id="paint8_linear_315_36204" x1="41.1156" y1="24.0017" x2="12.2237" y2="24.0017" gradientUnits="userSpaceOnUse">
	<stop stop-color="#E0C500"/>
	<stop offset="0.4087" stop-color="#E0A600"/>
	<stop offset="0.7754" stop-color="#E09100"/>
	<stop offset="1" stop-color="#E08900"/>
	</linearGradient>
	<linearGradient id="paint9_linear_315_36204" x1="41.1156" y1="24.0017" x2="12.2237" y2="24.0017" gradientUnits="userSpaceOnUse">
	<stop stop-color="#FFE840"/>
	<stop offset="0.4087" stop-color="#FFCE40"/>
	<stop offset="0.7754" stop-color="#FFBC40"/>
	<stop offset="1" stop-color="#FFB540"/>
	</linearGradient>
	<linearGradient id="paint10_linear_315_36204" x1="26.7459" y1="10.519" x2="6.70713" y2="30.5578" gradientUnits="userSpaceOnUse">
	<stop stop-color="#40B8FF"/>
	<stop offset="0.00657445" stop-color="#40B9FF"/>
	<stop offset="0.2601" stop-color="#40CEFF"/>
	<stop offset="0.5122" stop-color="#40DDFF"/>
	<stop offset="0.7604" stop-color="#40E7FF"/>
	<stop offset="1" stop-color="#40EAFF"/>
	</linearGradient>
	<linearGradient id="paint11_linear_315_36204" x1="9.42953" y1="0.329744" x2="21.5639" y2="12.4641" gradientUnits="userSpaceOnUse">
	<stop stop-color="#65B895"/>
	<stop offset="0.0685" stop-color="#62BD95"/>
	<stop offset="0.4762" stop-color="#50DB97"/>
	<stop offset="0.8009" stop-color="#44ED98"/>
	<stop offset="1" stop-color="#40F498"/>
	</linearGradient>
	<clipPath id="clip0_315_36204">
	<rect width="161.552" height="48" fill="white" transform="translate(0.596924)"/>
	</clipPath>
	</defs>
</svg>
	