<svg width="104" height="104" viewBox="0 0 104 104" fill="none" xmlns="http://www.w3.org/2000/svg">
	<path d="M25.8655 28.7084L22.9752 15.7084H14.6162" stroke="#41CE8E" stroke-width="6" stroke-linecap="round" stroke-linejoin="round"/>
	<path fill-rule="evenodd" clip-rule="evenodd" d="M33.5011 64.285L25.8657 28.7084H80.7171C83.4774 28.7084 85.5314 31.252 84.9551 33.9517L78.4464 64.285C78.0174 66.2827 76.2537 67.7084 74.2084 67.7084H37.7347C35.6937 67.7084 33.9301 66.2827 33.5011 64.285Z" stroke="#41CE8E" stroke-width="6" stroke-linecap="round" stroke-linejoin="round"/>
	<path d="M75.682 83.4167C74.785 83.4167 74.057 84.1447 74.0656 85.0417C74.0656 85.9387 74.7936 86.6667 75.6906 86.6667C76.5876 86.6667 77.3156 85.9387 77.3156 85.0417C77.3113 84.1447 76.5833 83.4167 75.682 83.4167" stroke="#41CE8E" stroke-width="6" stroke-linecap="round" stroke-linejoin="round"/>
	<path d="M38.376 83.4167C37.479 83.4167 36.751 84.1447 36.7597 85.0417C36.7554 85.9387 37.4834 86.6667 38.3804 86.6667C39.2774 86.6667 40.0054 85.9387 40.0054 85.0417C40.0054 84.1447 39.2774 83.4167 38.376 83.4167" stroke="#41CE8E" stroke-width="6" stroke-linecap="round" stroke-linejoin="round"/>
</svg>
	